<svg id="visual" viewBox="0 0 900 256" width="900" height="256" xmlns="http://www.w3.org/2000/svg" xmlns:xlink="http://www.w3.org/1999/xlink" version="1.1"><path d="M0 119L37.5 115.2C75 111.3 150 103.7 225 106C300 108.3 375 120.7 450 132.2C525 143.7 600 154.3 675 151.8C750 149.3 825 133.7 862.5 125.8L900 118L900 257L862.5 257C825 257 750 257 675 257C600 257 525 257 450 257C375 257 300 257 225 257C150 257 75 257 37.5 257L0 257Z" fill="#FFFFFF" stroke-linecap="round" stroke-linejoin="miter"></path></svg>